<?xml version="1.0" encoding="UTF-8"?>
<svg id="Camada_1" xmlns="http://www.w3.org/2000/svg" xmlns:xlink="http://www.w3.org/1999/xlink" version="1.1" viewBox="0 0 348.88 201.96">
  <!-- Generator: Adobe Illustrator 29.3.1, SVG Export Plug-In . SVG Version: 2.1.0 Build 151)  -->
  <defs>
    <style>
      .st0 {
        fill: none;
      }

      .st1 {
        fill: #1d1d1b;
      }

      .st2 {
        clip-path: url(#clippath);
      }
    </style>
    <clipPath id="clippath">
      <rect class="st0" x="15.26" y="44.64" width="318.56" height="113.59"/>
    </clipPath>
  </defs>
  <g class="st2">
    <path class="st1" d="M325.12,153.79c0,2.4,1.96,4.36,4.35,4.36s4.35-1.96,4.35-4.36-1.95-4.36-4.35-4.36-4.35,1.96-4.35,4.36M317.14,134.98c0,11.47-7.34,21.42-18.78,21.42s-20.4-10.49-20.4-23.04c0-13.52,9.39-22.4,19.21-22.4,9.18,0,19.97,8.12,19.97,24.02M298.57,109.12c-13.82,0-25.15,11.9-25.15,25.85,0,11.47,9.07,23.26,23.53,23.26,16.19,0,24.72-13.63,24.72-25.96,0-13.96-11.44-23.15-23.1-23.15M261.49,125.56c-.11.22,0,.32.11.43,1.08,1.41,4.75,2.06,6.15-.76,1.4-2.81.32-6.38-3.13-10.06-2.48-2.6-7.34-6.06-15.22-6.06-14.14,0-23.97,12.12-23.97,25.96,0,13.09,8.75,23.15,22.89,23.15,9.71,0,15.87-5.84,19.54-10.93-.11-.43-.76-.87-1.19-.87-2.27,3.03-8.42,9.63-17.16,9.63-12.2,0-19.86-10.49-19.76-23.26,0-10.28,6.48-21.85,18.46-21.85,6.59,0,10.79,2.49,13.06,6.17,1.73,2.81,1.19,6.28.21,8.44M142.86,99.66v-42.35h23.64c13.76,0,30.44.32,30.44,21.74,0,19.64-16.68,20.61-30.61,20.61h-23.48ZM128.29,158.24h14.57v-46.09h23.48c20.24,0,44.86-3.24,44.86-33.1s-24.45-34.4-44.69-34.4h-38.21v113.59ZM48.13,111.34l12.63-34.24c2.59-7.14,4.37-12.33,6.31-18.34h.16c1.62,4.87,4.21,12.33,6.48,18.34l12.79,34.24h-38.38ZM15.26,158.24h15.54l12.63-33.92h47.77l12.79,33.92h15.38l-44.2-113.59h-15.54L15.26,158.24Z"/>
  </g>
</svg>